<?xml version="1.0" encoding="utf-8"?>
<!-- Generator: Adobe Illustrator 22.1.0, SVG Export Plug-In . SVG Version: 6.00 Build 0)  -->
<svg version="1.1" id="Capa_1" xmlns="http://www.w3.org/2000/svg" xmlns:xlink="http://www.w3.org/1999/xlink" x="0px" y="0px"
	 viewBox="0 0 48 48" style="enable-background:new 0 0 48 48;" xml:space="preserve">
<style type="text/css">
	.st0{fill:#1A171B;}
	.st1{fill:#FFFFFF;}
</style>
<g id="Warstwa_x0020_1">
	<g id="_1477812319696">
		<rect class="st0" width="48" height="48"/>
		<path class="st1" d="M18.3,14.5c2.2,0,4.2,0.8,5.8,2l0,0c0.2,0.1,0.3,0.3,0.3,0.6c0,0.2-0.1,0.3-0.1,0.4l-0.1,0.1
			c-0.1,0.1-0.3,0.2-0.4,0.2c-0.2,0-0.3-0.1-0.4-0.1c-1.3-1.1-3-1.7-4.9-1.7c-4.4,0-7.9,3.6-7.9,8c0,4.4,3.5,8,7.9,8
			c3.9,0,7.1-2.8,7.8-6.5l0,0c0,0,0,0,0-0.1c0-0.1,0-0.2-0.1-0.2c-0.1-0.1-0.1-0.1-0.2-0.2c-0.1-0.1-0.2-0.1-0.3-0.1h0h0h-6.4l0,0
			c-0.4,0-0.7-0.3-0.7-0.7c0-0.4,0.3-0.7,0.7-0.7h7h0.5h0h0h0h0l0,0h0h0h0h0h0l0,0h0l0,0h0l0,0h0l0,0l0,0l0,0h0l0,0h0l0,0l0,0h0l0,0
			l0,0l0,0l0,0h0l0,0l0,0l0,0l0,0h0l0,0l0,0l0,0l0,0h0l0,0l0,0l0,0l0,0l0,0l0,0h0l0,0l0,0l0,0l0,0h0l0,0l0,0l0,0l0,0l0,0l0,0l0,0
			l0,0l0,0l0,0l0,0l0,0l0,0l0,0l0,0l0,0l0,0l0,0l0,0l0,0l0,0l0,0l0,0l0,0l0,0l0,0l0,0l0,0l0,0v0l0,0l0,0c0.3,0.1,0.5,0.4,0.6,0.7
			l0,0l0,0l0,0l0,0l0,0l0,0l0,0v0l0,0v0l0,0l0,0l0,0l0,0v0v0c0,0,0,0.1,0,0.1c-0.3,5-4.4,8.9-9.3,8.9C13.2,33.5,9,29.2,9,24
			C9,18.8,13.2,14.5,18.3,14.5z M35.6,22.7v0.8h0.8h1.9c0.4,0,0.7,0.3,0.7,0.7c0,0.4-0.3,0.7-0.7,0.7l0,0h-1.9h-0.8v0.8v1.9l0,0
			c0,0.4-0.3,0.7-0.7,0.7c-0.4,0-0.7-0.3-0.7-0.7v-1.9v-0.8h-0.8h-1.9l0,0c-0.4,0-0.7-0.3-0.7-0.7c0-0.4,0.3-0.7,0.7-0.7h1.9h0.8
			v-0.8v-1.9c0-0.4,0.3-0.7,0.7-0.7c0.4,0,0.7,0.3,0.7,0.7l0,0V22.7z"/>
	</g>
</g>
</svg>
