<?xml version="1.0" encoding="utf-8"?>
<!-- Generator: Adobe Illustrator 22.1.0, SVG Export Plug-In . SVG Version: 6.00 Build 0)  -->
<svg version="1.1"
	 id="Capa_1" text-rendering="geometricPrecision" image-rendering="optimizeQuality" shape-rendering="geometricPrecision"
	 xmlns="http://www.w3.org/2000/svg" xmlns:xlink="http://www.w3.org/1999/xlink" x="0px" y="0px" viewBox="0 0 48 48"
	 style="enable-background:new 0 0 48 48;" xml:space="preserve">
<style type="text/css">
	.st0{fill:#1A171B;}
	.st1{fill:#FFFFFF;}
</style>
<g text-rendering="geometricPrecision" image-rendering="optimizeQuality" shape-rendering="geometricPrecision" transform="matrix(1.0000014 0 0 1.0000014 37435.948 -.0262052)">
	<path class="st0" d="M-37435.9,0h48v48h-48V0z"/>
	<path class="st1" d="M-37418.5,14.4L-37418.5,14.4c0.4,0,0.7,0.3,0.7,0.7V21c0,0.2,0.2,0.4,0.4,0.4h10.7c0.4,0,0.7,0.3,0.7,0.7l0,0
		c0,0.4-0.3,0.7-0.7,0.7h-10.7c-0.2,0-0.4,0.2-0.4,0.4v3.2c0,3.2,2.6,5.8,5.8,5.8h6.6c0.4,0,0.7,0.3,0.7,0.7l0,0
		c0,0.4-0.3,0.7-0.7,0.7h-6.6c-4,0-7.3-3.3-7.3-7.3V15.1C-37419.2,14.7-37418.9,14.4-37418.5,14.4z"/>
</g>
</svg>
