<?xml version="1.0" encoding="utf-8"?>
<!-- Generator: Adobe Illustrator 22.1.0, SVG Export Plug-In . SVG Version: 6.00 Build 0)  -->
<svg version="1.1"
	 id="Capa_1" text-rendering="geometricPrecision" image-rendering="optimizeQuality" shape-rendering="geometricPrecision"
	 xmlns="http://www.w3.org/2000/svg" xmlns:xlink="http://www.w3.org/1999/xlink" x="0px" y="0px" viewBox="0 0 48 48"
	 style="enable-background:new 0 0 48 48;" xml:space="preserve">
<style type="text/css">
	.st0{fill:#1A171B;}
	.st1{fill:#FFFFFF;}
</style>
<g transform="translate(37554.97 -.36784674)">
	<path class="st0" d="M-37555,0.4h48v48h-48V0.4z"/>
	<path class="st1" d="M-37535.9,21.7h3.6c0.2,0,0.4-0.2,0.4-0.4v-2.4l0,0c0-2.3,1.9-4.2,4.2-4.2l0,0h1.7c0.4,0,0.7,0.3,0.7,0.7l0,0
		c0,0.4-0.3,0.7-0.7,0.7h-1.7c-1.5,0-2.8,1.2-2.8,2.8v2.4c0,0.2,0.2,0.4,0.4,0.4h4.1c0.4,0,0.7,0.3,0.7,0.7l0,0
		c0,0.4-0.3,0.7-0.7,0.7h-4.1c-0.2,0-0.4,0.2-0.4,0.4v9.9c0,0.4-0.3,0.7-0.7,0.7l0,0c-0.4,0-0.7-0.3-0.7-0.7v-9.9
		c0-0.2-0.2-0.4-0.4-0.4h-3.6c-0.4,0-0.7-0.3-0.7-0.7l0,0C-37536.6,22-37536.3,21.7-37535.9,21.7z"/>
</g>
</svg>
